<mxfile host="app.diagrams.net" modified="2023-05-04T19:15:10.496Z" agent="Mozilla/5.0 (Windows NT 10.0; Win64; x64; rv:109.0) Gecko/20100101 Firefox/112.0" etag="crYuH7QeLpIDn1LMYlmJ" version="21.2.1" type="github">
  <diagram name="Page-1" id="ixMEZ7nuK4jQSt1pwfST">
    <mxGraphModel dx="1900" dy="566" grid="1" gridSize="10" guides="1" tooltips="1" connect="1" arrows="1" fold="1" page="1" pageScale="1" pageWidth="850" pageHeight="1100" math="0" shadow="0">
      <root>
        <mxCell id="0" />
        <mxCell id="1" parent="0" />
        <mxCell id="bZ2RwvnJ7xoV5t2617Fk-2" value="&lt;p style=&quot;margin:0px;margin-top:6px;text-align:center;&quot;&gt;&lt;b&gt;Database&lt;/b&gt;&lt;br&gt;&lt;/p&gt;&lt;hr&gt;&lt;p style=&quot;margin:0px;margin-left:8px;&quot;&gt;+ Attribute1: Type&lt;br&gt;+ Attribute2: Type&lt;/p&gt;" style="align=left;overflow=fill;html=1;dropTarget=0;whiteSpace=wrap;" vertex="1" parent="1">
          <mxGeometry x="550" y="250" width="180" height="90" as="geometry" />
        </mxCell>
        <mxCell id="bZ2RwvnJ7xoV5t2617Fk-3" value="" style="shape=component;jettyWidth=8;jettyHeight=4;" vertex="1" parent="bZ2RwvnJ7xoV5t2617Fk-2">
          <mxGeometry x="1" width="20" height="20" relative="1" as="geometry">
            <mxPoint x="-24" y="4" as="offset" />
          </mxGeometry>
        </mxCell>
        <mxCell id="bZ2RwvnJ7xoV5t2617Fk-4" value="&lt;p style=&quot;margin:0px;margin-top:6px;text-align:center;&quot;&gt;&lt;b&gt;Web App (Frontend) (Customer)&lt;/b&gt;&lt;br&gt;&lt;/p&gt;&lt;hr&gt;&lt;p style=&quot;margin:0px;margin-left:8px;&quot;&gt;+ Attribute1: Type&lt;br&gt;+ Attribute2: Type&lt;/p&gt;" style="align=left;overflow=fill;html=1;dropTarget=0;whiteSpace=wrap;" vertex="1" parent="1">
          <mxGeometry x="-80" y="140" width="240" height="90" as="geometry" />
        </mxCell>
        <mxCell id="bZ2RwvnJ7xoV5t2617Fk-5" value="" style="shape=component;jettyWidth=8;jettyHeight=4;" vertex="1" parent="bZ2RwvnJ7xoV5t2617Fk-4">
          <mxGeometry x="1" width="20" height="20" relative="1" as="geometry">
            <mxPoint x="-24" y="4" as="offset" />
          </mxGeometry>
        </mxCell>
        <mxCell id="bZ2RwvnJ7xoV5t2617Fk-6" value="&lt;p style=&quot;margin:0px;margin-top:6px;text-align:center;&quot;&gt;&lt;b&gt;Web App (Backend)&lt;br&gt;&lt;/b&gt;&lt;/p&gt;&lt;hr&gt;&lt;p style=&quot;margin:0px;margin-left:8px;&quot;&gt;+ Attribute1: Type&lt;br&gt;+ Attribute2: Type&lt;/p&gt;" style="align=left;overflow=fill;html=1;dropTarget=0;whiteSpace=wrap;" vertex="1" parent="1">
          <mxGeometry x="260" y="250" width="180" height="90" as="geometry" />
        </mxCell>
        <mxCell id="bZ2RwvnJ7xoV5t2617Fk-7" value="" style="shape=component;jettyWidth=8;jettyHeight=4;" vertex="1" parent="bZ2RwvnJ7xoV5t2617Fk-6">
          <mxGeometry x="1" width="20" height="20" relative="1" as="geometry">
            <mxPoint x="-24" y="4" as="offset" />
          </mxGeometry>
        </mxCell>
        <mxCell id="bZ2RwvnJ7xoV5t2617Fk-14" value="" style="rounded=0;orthogonalLoop=1;jettySize=auto;html=1;endArrow=none;endFill=0;sketch=0;sourcePerimeterSpacing=0;targetPerimeterSpacing=0;exitX=1;exitY=0.5;exitDx=0;exitDy=0;" edge="1" target="bZ2RwvnJ7xoV5t2617Fk-16" parent="1" source="bZ2RwvnJ7xoV5t2617Fk-6">
          <mxGeometry relative="1" as="geometry">
            <mxPoint x="450" y="295" as="sourcePoint" />
          </mxGeometry>
        </mxCell>
        <mxCell id="bZ2RwvnJ7xoV5t2617Fk-15" value="" style="rounded=0;orthogonalLoop=1;jettySize=auto;html=1;endArrow=halfCircle;endFill=0;entryX=0.5;entryY=0.5;endSize=6;strokeWidth=1;sketch=0;exitX=0;exitY=0.5;exitDx=0;exitDy=0;" edge="1" target="bZ2RwvnJ7xoV5t2617Fk-16" parent="1" source="bZ2RwvnJ7xoV5t2617Fk-2">
          <mxGeometry relative="1" as="geometry">
            <mxPoint x="490" y="295" as="sourcePoint" />
          </mxGeometry>
        </mxCell>
        <mxCell id="bZ2RwvnJ7xoV5t2617Fk-16" value="" style="ellipse;whiteSpace=wrap;html=1;align=center;aspect=fixed;resizable=0;points=[];outlineConnect=0;sketch=0;" vertex="1" parent="1">
          <mxGeometry x="480" y="290" width="10" height="10" as="geometry" />
        </mxCell>
        <mxCell id="bZ2RwvnJ7xoV5t2617Fk-17" value="" style="rounded=0;orthogonalLoop=1;jettySize=auto;html=1;endArrow=none;endFill=0;sketch=0;sourcePerimeterSpacing=0;targetPerimeterSpacing=0;exitX=1;exitY=0.5;exitDx=0;exitDy=0;" edge="1" target="bZ2RwvnJ7xoV5t2617Fk-19" parent="1" source="bZ2RwvnJ7xoV5t2617Fk-4">
          <mxGeometry relative="1" as="geometry">
            <mxPoint x="204" y="185" as="sourcePoint" />
          </mxGeometry>
        </mxCell>
        <mxCell id="bZ2RwvnJ7xoV5t2617Fk-18" value="" style="rounded=0;orthogonalLoop=1;jettySize=auto;html=1;endArrow=halfCircle;endFill=0;entryX=0.5;entryY=0.5;endSize=6;strokeWidth=1;sketch=0;exitX=0;exitY=0.5;exitDx=0;exitDy=0;" edge="1" target="bZ2RwvnJ7xoV5t2617Fk-19" parent="1" source="bZ2RwvnJ7xoV5t2617Fk-6">
          <mxGeometry relative="1" as="geometry">
            <mxPoint x="234" y="295" as="sourcePoint" />
          </mxGeometry>
        </mxCell>
        <mxCell id="bZ2RwvnJ7xoV5t2617Fk-19" value="" style="ellipse;whiteSpace=wrap;html=1;align=center;aspect=fixed;resizable=0;points=[];outlineConnect=0;sketch=0;" vertex="1" parent="1">
          <mxGeometry x="219" y="180" width="10" height="10" as="geometry" />
        </mxCell>
        <mxCell id="bZ2RwvnJ7xoV5t2617Fk-23" value="&lt;p style=&quot;margin:0px;margin-top:6px;text-align:center;&quot;&gt;&lt;b&gt;Web App (Frontend) (Bank Employee)&lt;/b&gt;&lt;/p&gt;&lt;hr&gt;&lt;p style=&quot;margin:0px;margin-left:8px;&quot;&gt;+ Attribute1: Type&lt;br&gt;+ Attribute2: Type&lt;/p&gt;" style="align=left;overflow=fill;html=1;dropTarget=0;whiteSpace=wrap;" vertex="1" parent="1">
          <mxGeometry x="-120" y="270" width="280" height="90" as="geometry" />
        </mxCell>
        <mxCell id="bZ2RwvnJ7xoV5t2617Fk-24" value="" style="shape=component;jettyWidth=8;jettyHeight=4;" vertex="1" parent="bZ2RwvnJ7xoV5t2617Fk-23">
          <mxGeometry x="1" width="20" height="20" relative="1" as="geometry">
            <mxPoint x="-24" y="4" as="offset" />
          </mxGeometry>
        </mxCell>
        <mxCell id="bZ2RwvnJ7xoV5t2617Fk-26" value="&lt;p style=&quot;margin:0px;margin-top:6px;text-align:center;&quot;&gt;&lt;b&gt;Web App (Frontend) (Admin)&lt;/b&gt;&lt;/p&gt;&lt;p style=&quot;margin:0px;margin-top:6px;text-align:center;&quot;&gt;&lt;/p&gt;&lt;hr&gt;&lt;p style=&quot;margin:0px;margin-left:8px;&quot;&gt;+ Attribute1: Type&lt;br&gt;+ Attribute2: Type&lt;/p&gt;" style="align=left;overflow=fill;html=1;dropTarget=0;whiteSpace=wrap;" vertex="1" parent="1">
          <mxGeometry x="-90" y="420" width="260" height="90" as="geometry" />
        </mxCell>
        <mxCell id="bZ2RwvnJ7xoV5t2617Fk-27" value="" style="shape=component;jettyWidth=8;jettyHeight=4;" vertex="1" parent="bZ2RwvnJ7xoV5t2617Fk-26">
          <mxGeometry x="1" width="20" height="20" relative="1" as="geometry">
            <mxPoint x="-24" y="4" as="offset" />
          </mxGeometry>
        </mxCell>
        <mxCell id="bZ2RwvnJ7xoV5t2617Fk-28" value="" style="rounded=0;orthogonalLoop=1;jettySize=auto;html=1;endArrow=none;endFill=0;sketch=0;sourcePerimeterSpacing=0;targetPerimeterSpacing=0;exitX=1;exitY=0.5;exitDx=0;exitDy=0;" edge="1" target="bZ2RwvnJ7xoV5t2617Fk-30" parent="1" source="bZ2RwvnJ7xoV5t2617Fk-26">
          <mxGeometry relative="1" as="geometry">
            <mxPoint x="210" y="452" as="sourcePoint" />
          </mxGeometry>
        </mxCell>
        <mxCell id="bZ2RwvnJ7xoV5t2617Fk-29" value="" style="rounded=0;orthogonalLoop=1;jettySize=auto;html=1;endArrow=halfCircle;endFill=0;entryX=0.5;entryY=0.5;endSize=6;strokeWidth=1;sketch=0;exitX=0;exitY=0.75;exitDx=0;exitDy=0;" edge="1" target="bZ2RwvnJ7xoV5t2617Fk-30" parent="1" source="bZ2RwvnJ7xoV5t2617Fk-6">
          <mxGeometry relative="1" as="geometry">
            <mxPoint x="250" y="452" as="sourcePoint" />
          </mxGeometry>
        </mxCell>
        <mxCell id="bZ2RwvnJ7xoV5t2617Fk-30" value="" style="ellipse;whiteSpace=wrap;html=1;align=center;aspect=fixed;resizable=0;points=[];outlineConnect=0;sketch=0;" vertex="1" parent="1">
          <mxGeometry x="225" y="447" width="10" height="10" as="geometry" />
        </mxCell>
        <mxCell id="bZ2RwvnJ7xoV5t2617Fk-31" value="" style="rounded=0;orthogonalLoop=1;jettySize=auto;html=1;endArrow=none;endFill=0;sketch=0;sourcePerimeterSpacing=0;targetPerimeterSpacing=0;exitX=1;exitY=0.5;exitDx=0;exitDy=0;" edge="1" target="bZ2RwvnJ7xoV5t2617Fk-33" parent="1" source="bZ2RwvnJ7xoV5t2617Fk-23">
          <mxGeometry relative="1" as="geometry">
            <mxPoint x="193" y="309" as="sourcePoint" />
          </mxGeometry>
        </mxCell>
        <mxCell id="bZ2RwvnJ7xoV5t2617Fk-32" value="" style="rounded=0;orthogonalLoop=1;jettySize=auto;html=1;endArrow=halfCircle;endFill=0;entryX=0.5;entryY=0.5;endSize=6;strokeWidth=1;sketch=0;" edge="1" target="bZ2RwvnJ7xoV5t2617Fk-33" parent="1" source="bZ2RwvnJ7xoV5t2617Fk-6">
          <mxGeometry relative="1" as="geometry">
            <mxPoint x="233" y="309" as="sourcePoint" />
          </mxGeometry>
        </mxCell>
        <mxCell id="bZ2RwvnJ7xoV5t2617Fk-33" value="" style="ellipse;whiteSpace=wrap;html=1;align=center;aspect=fixed;resizable=0;points=[];outlineConnect=0;sketch=0;" vertex="1" parent="1">
          <mxGeometry x="208" y="304" width="10" height="10" as="geometry" />
        </mxCell>
      </root>
    </mxGraphModel>
  </diagram>
</mxfile>
